<svg xmlns="http://www.w3.org/2000/svg" viewBox="0 0 841.9 841.9" fill="#61DAFB">
  <g>
    <circle cx="420.95" cy="420.95" r="170.69" />
    <g>
      <path d="M420.95 127.22c-32.61 0-63.95 6.47-93.73 18.26 15.77 21.72 25.91 48.81 25.91 77.42 0 17.97-3.67 35.15-10.6 51.7-6.96-4.09-14.6-7.72-22.55-10.8-3.84-8.26-8.25-15.98-13.51-23.05 10.48-22.59 9.88-46.64-1.57-69.09-12.47-25.74-34.81-40.5-62.8-47.2-16.57-6.12-34.32-9.6-52.78-9.6-62.29 0-112.93 50.63-112.93 112.92s50.64 112.92 112.93 112.92c17.99 0 35.61-3.69 51.48-10.79 24.1 12.49 44.48 31.73 60.3 55.85-27.27 11.25-56.79 16.46-86.76 16.46-4.34 0-8.65-.13-12.96-.39 3.76-35.64 10.39-69.96 19.78-102.33-6.26-4.03-12.63-7.89-19.06-11.47-23.43 14.79-51.3 23.09-80.82 23.09-99.59 0-180.59-81.01-180.59-180.59s81.01-180.59 180.59-180.59c17.72 0 34.9 3.07 51.2 8.81-1.39 23.75 1.91 48.15 9.59 70.65-7.55 7.88-14.91 15.82-22.44 23.56 12.66 19.14 23.34 39.79 31.48 60.8-17.56-5.33-36.65-8.48-56.95-8.48z"/>
    </g>
  </g>
</svg>
